<?xml version="1.0" standalone="no"?>
<!DOCTYPE svg PUBLIC "-//W3C//DTD SVG 20010904//EN"
 "http://www.w3.org/TR/2001/REC-SVG-20010904/DTD/svg10.dtd">
<svg version="1.0" xmlns="http://www.w3.org/2000/svg"
 width="1024.000000pt" height="1024.000000pt" viewBox="0 0 1024.000000 1024.000000"
 preserveAspectRatio="xMidYMid meet">
<metadata>
Created by potrace 1.11, written by Peter Selinger 2001-2013
</metadata>
<g transform="translate(0.000000,1024.000000) scale(0.100000,-0.100000)"
fill="#000000" stroke="none">
<path d="M4999 9437 c-136 -39 -259 -163 -312 -316 -17 -49 -21 -98 -27 -381
-8 -339 -13 -375 -61 -506 -71 -193 -235 -367 -444 -472 -226 -113 -504 -155
-696 -104 -195 52 -298 122 -559 378 -212 208 -249 235 -359 268 -159 47 -352
-12 -476 -146 -93 -100 -130 -208 -123 -359 4 -76 9 -97 42 -164 33 -67 63
-102 240 -283 220 -225 285 -312 337 -447 49 -127 62 -202 56 -345 -16 -398
-260 -773 -584 -898 -137 -53 -206 -62 -475 -62 -408 0 -490 -19 -618 -137
-53 -49 -79 -83 -107 -140 -35 -70 -38 -84 -41 -178 -5 -113 11 -187 54 -261
39 -67 135 -151 216 -189 95 -45 182 -55 488 -55 262 -1 336 -10 471 -59 249
-91 438 -305 545 -615 75 -216 72 -452 -8 -644 -53 -129 -119 -214 -322 -421
-212 -217 -245 -258 -276 -352 -19 -54 -21 -80 -18 -165 4 -91 8 -109 41 -179
44 -91 135 -188 215 -229 146 -74 321 -74 450 1 26 15 137 115 247 223 215
211 290 271 410 326 121 56 212 76 350 76 139 1 237 -17 366 -67 265 -102 440
-248 539 -448 85 -172 91 -212 100 -587 8 -345 11 -366 62 -462 84 -158 233
-248 413 -248 189 0 353 103 430 272 39 84 45 142 45 402 0 267 13 387 55 514
81 241 264 422 545 539 349 146 661 111 945 -106 33 -25 141 -127 241 -227
158 -158 191 -186 255 -218 139 -69 319 -59 448 24 217 140 296 394 192 616
-26 56 -61 97 -229 268 -240 244 -298 322 -362 487 -26 69 -50 204 -50 284 0
279 165 635 372 804 74 61 212 131 318 162 67 19 110 22 405 29 356 8 400 14
498 68 78 42 162 130 198 206 124 266 -9 567 -290 657 -59 19 -101 22 -401 29
-373 8 -400 12 -548 81 -207 95 -348 247 -453 487 -131 299 -129 584 7 831 60
110 100 158 304 366 217 221 251 270 272 398 52 312 -245 603 -558 550 -128
-22 -175 -55 -388 -266 -204 -204 -292 -273 -429 -337 -211 -98 -454 -98 -717
1 -323 122 -518 325 -596 625 -25 93 -27 119 -34 419 -5 204 -12 334 -20 360
-36 119 -137 237 -247 292 -70 35 -80 37 -186 40 -70 2 -129 -2 -158 -10z
m-216 -2983 c219 -48 434 -219 541 -433 58 -114 78 -205 79 -351 2 -216 -52
-369 -188 -533 -99 -120 -209 -195 -365 -249 -92 -31 -100 -32 -255 -32 -155
0 -163 1 -255 32 -156 54 -266 129 -365 249 -136 163 -190 317 -189 533 1 153
22 240 91 373 39 76 65 109 148 192 85 85 114 108 196 149 52 26 129 56 170
66 97 24 292 26 392 4z m1287 -1760 c142 -42 259 -177 278 -322 31 -226 -110
-424 -331 -462 -271 -48 -509 189 -466 463 23 148 134 277 275 321 65 20 178
20 244 0z"/>
</g>
</svg>
